<svg id="visual" viewBox="0 0 1920 1080" width="1920" height="1080" xmlns="http://www.w3.org/2000/svg" xmlns:xlink="http://www.w3.org/1999/xlink" version="1.1"><rect x="0" y="0" width="1920" height="1080" fill="#001220"></rect><path d="M0 660L45.7 670.3C91.3 680.7 182.7 701.3 274.2 713C365.7 724.7 457.3 727.3 548.8 729.2C640.3 731 731.7 732 823 717.2C914.3 702.3 1005.7 671.7 1097 678C1188.3 684.3 1279.7 727.7 1371.2 727.7C1462.7 727.7 1554.3 684.3 1645.8 689.5C1737.3 694.7 1828.7 748.3 1874.3 775.2L1920 802L1920 1081L1874.3 1081C1828.7 1081 1737.3 1081 1645.8 1081C1554.3 1081 1462.7 1081 1371.2 1081C1279.7 1081 1188.3 1081 1097 1081C1005.7 1081 914.3 1081 823 1081C731.7 1081 640.3 1081 548.8 1081C457.3 1081 365.7 1081 274.2 1081C182.7 1081 91.3 1081 45.7 1081L0 1081Z" fill="#9b3d36"></path><path d="M0 819L45.7 816C91.3 813 182.7 807 274.2 812.3C365.7 817.7 457.3 834.3 548.8 841.5C640.3 848.7 731.7 846.3 823 847.3C914.3 848.3 1005.7 852.7 1097 847.8C1188.3 843 1279.7 829 1371.2 816.2C1462.7 803.3 1554.3 791.7 1645.8 789.5C1737.3 787.3 1828.7 794.7 1874.3 798.3L1920 802L1920 1081L1874.3 1081C1828.7 1081 1737.3 1081 1645.8 1081C1554.3 1081 1462.7 1081 1371.2 1081C1279.7 1081 1188.3 1081 1097 1081C1005.7 1081 914.3 1081 823 1081C731.7 1081 640.3 1081 548.8 1081C457.3 1081 365.7 1081 274.2 1081C182.7 1081 91.3 1081 45.7 1081L0 1081Z" fill="#922746"></path><path d="M0 918L45.7 912.8C91.3 907.7 182.7 897.3 274.2 876.3C365.7 855.3 457.3 823.7 548.8 817.5C640.3 811.3 731.7 830.7 823 837.5C914.3 844.3 1005.7 838.7 1097 848.5C1188.3 858.3 1279.7 883.7 1371.2 878C1462.7 872.3 1554.3 835.7 1645.8 818.8C1737.3 802 1828.7 805 1874.3 806.5L1920 808L1920 1081L1874.3 1081C1828.7 1081 1737.3 1081 1645.8 1081C1554.3 1081 1462.7 1081 1371.2 1081C1279.7 1081 1188.3 1081 1097 1081C1005.7 1081 914.3 1081 823 1081C731.7 1081 640.3 1081 548.8 1081C457.3 1081 365.7 1081 274.2 1081C182.7 1081 91.3 1081 45.7 1081L0 1081Z" fill="#7e1b58"></path><path d="M0 875L45.7 883.3C91.3 891.7 182.7 908.3 274.2 907C365.7 905.7 457.3 886.3 548.8 882.8C640.3 879.3 731.7 891.7 823 902.5C914.3 913.3 1005.7 922.7 1097 930.7C1188.3 938.7 1279.7 945.3 1371.2 935.7C1462.7 926 1554.3 900 1645.8 901.5C1737.3 903 1828.7 932 1874.3 946.5L1920 961L1920 1081L1874.3 1081C1828.7 1081 1737.3 1081 1645.8 1081C1554.3 1081 1462.7 1081 1371.2 1081C1279.7 1081 1188.3 1081 1097 1081C1005.7 1081 914.3 1081 823 1081C731.7 1081 640.3 1081 548.8 1081C457.3 1081 365.7 1081 274.2 1081C182.7 1081 91.3 1081 45.7 1081L0 1081Z" fill="#5d1e67"></path><path d="M0 952L45.7 958.5C91.3 965 182.7 978 274.2 981.2C365.7 984.3 457.3 977.7 548.8 972.2C640.3 966.7 731.7 962.3 823 968.8C914.3 975.3 1005.7 992.7 1097 991.7C1188.3 990.7 1279.7 971.3 1371.2 968C1462.7 964.7 1554.3 977.3 1645.8 987.2C1737.3 997 1828.7 1004 1874.3 1007.5L1920 1011L1920 1081L1874.3 1081C1828.7 1081 1737.3 1081 1645.8 1081C1554.3 1081 1462.7 1081 1371.2 1081C1279.7 1081 1188.3 1081 1097 1081C1005.7 1081 914.3 1081 823 1081C731.7 1081 640.3 1081 548.8 1081C457.3 1081 365.7 1081 274.2 1081C182.7 1081 91.3 1081 45.7 1081L0 1081Z" fill="#242570"></path></svg>